# AST/ASF file generated using VICON BodyLanguage
# -----------------------------------------------
:version 1.10
:name VICON
:units
  mass 1.0
  length 0.45
  angle deg
:documentation
   .ast/.asf automatically generated from VICON data using
   VICON BodyBuilder and BodyLanguage model FoxedUp or BRILLIANT.MOD
:root
   order TX TY TZ RX RY RZ
   axis XYZ
   position 0 0 0  
   orientation 0 0 0 
:bonedata
  begin
     id 1 
     name lhipjoint
     direction 0.567149 -0.783011 0.255413 
     length 2.28399 
     axis 0 0 0  XYZ
  end
  begin
     id 2 
     name lfemur
     direction 0.34202 -0.939693 0  
     length 7.34031  
     axis 0 0 20  XYZ
    dof rx ry rz
    limits (-160.0 20.0)
           (-70.0 70.0)
           (-60.0 70.0)
  end
  begin
     id 3 
     name ltibia
     direction 0.34202 -0.939693 0   
     length 6.9833   
     axis 0 0 20   XYZ
    dof rx
    limits (-10.0 170.0)
  end
  begin
     id 4 
     name lfoot
     direction 0.136498 -0.375025 0.91691   
     length 2.33665   
     axis -90 7.62852e-016 20   XYZ
    dof rx rz
    limits (-45.0 90.0)
           (-70.0 20.0)
  end
  begin
     id 5 
     name ltoes
     direction 1.5367e-011 -4.21617e-011 1   
     length 1.15039   
     axis -90 7.62852e-016 20   XYZ
    dof rx
    limits (-90.0 20.0)
  end
  begin
     id 6 
     name rhipjoint
     direction -0.602854 -0.758518 0.247423   
     length 2.35775  
     axis 0 0 0  XYZ 
  end
  begin
     id 7 
     name rfemur
     direction -0.34202 -0.939693 0   
     length 7.43932   
     axis 0 0 -20   XYZ
    dof rx ry rz
    limits (-160.0 20.0)
           (-70.0 70.0)
           (-70.0 60.0)
  end
  begin
     id 8 
     name rtibia
     direction -0.34202 -0.939693 0   
     length 7.11893   
     axis 0 0 -20   XYZ
    dof rx
    limits (-10.0 170.0)
 end
 begin
     id 9 
     name rfoot
     direction -0.131771 -0.362037 0.922803   
     length 2.53019  
     axis -90 -7.62852e-016 -20   XYZ
    dof rx rz
    limits (-45.0 90.0)
           (-20.0 70.0)
  end
  begin
     id 10 
     name rtoes
     direction -1.53733e-011 -4.21932e-011 1   
     length 1.24596   
     axis -90 -7.62852e-016 -20   XYZ
    dof rx
    limits (-90.0 20.0)
  end
  begin
     id 11 
     name lowerback
     direction 0.0235427 0.999023 -0.0374125   
     length 2.21768   
     axis 0 0 0   XYZ
    dof rx ry rz
    limits (-20.0 45.0)
           (-30.0 30.0)
           (-30.0 30.0)
  end
  begin
     id 12 
     name upperback
     direction 0.0302156 0.996818 -0.073759   
     length 2.20352   
     axis 0 0 0   XYZ
    dof rx ry rz
    limits (-20.0 45.0)
           (-30.0 30.0)
           (-30.0 30.0)
  end
  begin
     id 13 
     name thorax
     direction 0.0187169 0.998235 -0.0563532   
     length 2.22103   
     axis 0 0 0   XYZ
    dof rx ry rz
    limits (-20.0 45.0)
           (-30.0 30.0)
           (-30.0 30.0)
  end
  begin
     id 14 
     name lowerneck
     direction -0.119528 0.987423 0.103481   
     length 1.72948   
     axis 0 0 0   XYZ
    dof rx ry rz
    limits (-20.0 45.0)
           (-30.0 30.0)
           (-30.0 30.0)
  end
  begin
     id 15 
     name upperneck
     direction 0.248049 0.963095 -0.104496   
     length 1.74979   
     axis 0 0 0   XYZ
    dof rx ry rz
    limits (-20.0 45.0)
           (-30.0 30.0)
           (-30.0 30.0)
  end
  begin
     id 16
     name head
     direction 0.0903589 0.994284 -0.056876  
     length 1.78268  
     axis 0 0 0   XYZ
    dof rx ry rz
    limits (-20.0 45.0)
           (-30.0 30.0)
           (-30.0 30.0)
  end
  begin
     id 17 
     name lclavicle
     direction 0.946008 0.242039 -0.215608  
     length 3.80783  
     axis 0 0 0   XYZ
    dof ry rz
    limits (-20.0 10.0)
           (0.0 20.0)
  end
  begin
     id 18 
     name lhumerus
     direction 1 -4.48991e-011 -2.25695e-027   
     length 4.83125   
     axis 180 -30 -90   XYZ
    dof rx ry rz
    limits (-60.0 90.0)
           (-90.0 90.0)
           (-90.0 90.0)
  end
  begin
     id 19
     name lradius
     direction 0.999991 0.00366712 -0.00211721   
     length 3.00391   
     axis 180 -30 -90   XYZ
    dof rx
    limits (-10.0 170.0)
  end
  begin
     id 20
     name lwrist
     direction 0.999991 0.00393016 -0.00141978   
     length 1.50195   
     axis -1.00488e-014 90 90   XYZ
    dof ry
    limits (-180.0 0.0)
 end
  begin
     id 21 
     name lhand
     direction 1 -4.49123e-011 2.72098e-026   
     length 1.2717   
     axis -1.73687e-014 90 90   XYZ
    dof rx rz
    limits (-90.0 90.0)
           (-45.0 45.0)
  end
  begin
     id 22 
     name lfingers
     direction 1 -4.48678e-011 5.4479e-026   
     length 1.02528   
     axis -3.47372e-014 90 90   XYZ
    dof rx
    limits (0.0 90.0)
  end
  begin
     id 23
     name lthumb
     direction 0.707107 -6.34851e-011 0.707107   
     length 1.4721   
     axis -90 45 -1.62303e-014   XYZ
    dof rx rz
    limits (-45.0 45.0)
           (-45.0 45.0)
  end
  begin
     id 24 
     name rclavicle
     direction -0.981723 0.189447 -0.0181673   
     length 3.74989  
     axis 0 0 0   XYZ 
    dof ry rz
    limits (-10.0 20.0)
           (-20.0 0.0)
  end
  begin
     id 25 
     name rhumerus
     direction -1 -4.48985e-011 2.38206e-027  
     length 4.61118   
     axis 180 30 90   XYZ
    dof rx ry rz
    limits (-90.0 60.0)
           (-90.0 90.0)
           (-90.0 90.0)
  end
  begin
     id 26 
     name rradius
     direction -1 -4.48977e-011 7.41019e-027   
     length 2.91491   
     axis 180 30 90   XYZ
    dof rx
    limits (-10.0 170.0)
  end
  begin
     id 27 
     name rwrist
     direction -1 -4.48549e-011 1.3624e-026   
     length 1.45745   
     axis -1.00488e-014 -90 -90   XYZ
    dof ry
    limits (-180.0 0.0)
  end
  begin
     id 28
     name rhand
     direction -1 -4.49107e-011 2.72109e-026   
     length 1.30769   
     axis -1.73687e-014 -90 -90   XYZ
    dof rx rz
    limits (-90.0 90.0)
           (-45.0 45.0)
  end
  begin
     id 29
     name rfingers
     direction -1 -4.48919e-011 5.44468e-026   
     length 1.05429   
     axis -3.47372e-014 -90 -90   XYZ
    dof rx
    limits (0.0 90.0)
  end
  begin
     id 30
     name rthumb
     direction -0.707107 -6.35315e-011 0.707107   
     length 1.51376   
     axis -90 -45 1.62303e-014   XYZ
    dof rx rz
    limits (-45.0 45.0)
           (-45.0 45.0)
  end
:hierarchy
  begin
    root lhipjoint rhipjoint lowerback
    lhipjoint lfemur
    lfemur ltibia
    ltibia lfoot
    lfoot ltoes
    rhipjoint rfemur
    rfemur rtibia
    rtibia rfoot
    rfoot rtoes
    lowerback upperback
    upperback thorax
    thorax lowerneck lclavicle rclavicle
    lowerneck upperneck
    upperneck head
    lclavicle lhumerus
    lhumerus lradius
    lradius lwrist
    lwrist lhand lthumb
    lhand lfingers
    rclavicle rhumerus
    rhumerus rradius
    rradius rwrist
    rwrist rhand rthumb
    rhand rfingers
  end

#!OML:ASF X:\für Bonn\!DataBase\2005_08_11_Bastian_Final\c3d\Bastian.ASF
:FULLY-SPECIFIED
:DEGREES
16
root -1.90101 16.5271 -7.62123 168.106 4.25854 -175.293
lowerback 7.4295 -3.80664 -1.41873
upperback 6.54745 -4.5714 0.250429
thorax 2.76074 -2.1001 1.27776
lowerneck -3.06918 -2.62196 -5.47949
upperneck -5.6408 -2.52351 12.3224
head -0.893894 -1.10589 4.59124
rclavicle 2.75814e-014 -7.55382e-015
rhumerus -27.4466 34.3191 -96.9885
rradius 120.517
rwrist 7.70923
rhand -22.5083 16.2105
rfingers 7.12502
rthumb 3.91796 -13.7332
lclavicle 2.75814e-014 -7.55382e-015
lhumerus -15.7291 -44.9997 97.7869
lradius 118.406
lwrist 42.2391
lhand 1.15793 -17.8597
lfingers 7.12502
lthumb 26.699 10.277
rfemur -18.3536 -4.03913 26.3756
rtibia 81.2767
rfoot -202.718 -189.717
rtoes 3.67597
lfemur 10.702 1.10171 -15.7505
ltibia 39.4212
lfoot -27.4685 -11.6682
ltoes 3.1005
17
root -1.91056 16.5398 -7.67539 168.022 3.65211 -175.322
lowerback 7.68898 -3.89107 -1.57049
upperback 6.63888 -4.66997 0.19076
thorax 2.72561 -2.14424 1.31851
lowerneck -2.8905 -2.76817 -5.55631
upperneck -5.79853 -2.69674 12.5023
head -0.948417 -1.19805 4.66125
rclavicle -3.8763e-015 8.74653e-015
rhumerus -26.0932 34.4318 -96.3831
rradius 120.905
rwrist 8.07768
rhand -22.6861 16.209
rfingers 7.12502
rthumb 3.74621 -13.7379
lclavicle -3.8763e-015 8.74653e-015
lhumerus -14.9233 -45.9958 97.4327
lradius 118.629
lwrist 42.1057
lhand 0.950931 -17.6591
lfingers 7.12502
lthumb 26.5009 10.5076
rfemur -19.6104 -4.1117 26.3622
rtibia 81.8239
rfoot -202.778 -189.193
rtoes 2.60554
lfemur 11.1692 0.865389 -15.8219
ltibia 38.8656
lfoot -27.3226 -11.9325
ltoes 2.60669
18
root -1.91933 16.5533 -7.7311 167.946 3.03232 -175.327
lowerback 7.96746 -3.97275 -1.67993
upperback 6.71127 -4.76498 0.116345
thorax 2.65542 -2.18487 1.32305
lowerneck -2.74001 -2.92773 -5.56244
upperneck -5.91072 -2.89211 12.671
head -0.983966 -1.30045 4.71518
rclavicle 4.88016e-014 -1.43125e-014
rhumerus -24.8629 34.5104 -95.9335
rradius 121.248
rwrist 8.42156
rhand -22.9197 16.1999
rfingers 7.12502
rthumb 3.5206 -13.7507
lclavicle 4.88016e-014 -1.43125e-014
lhumerus -14.2665 -46.9183 97.1376
lradius 118.841
lwrist 42.0137
lhand 0.735839 -17.4155
lfingers 7.12502
lthumb 26.295 10.7821
rfemur -20.8075 -4.23828 26.3621
rtibia 82.1655
rfoot -202.888 -188.574
rtoes 2.05415
lfemur 11.664 0.634803 -15.8561
ltibia 38.2462
lfoot -27.1501 -12.1846
ltoes 2.2055
19
root -1.92729 16.5667 -7.78863 167.884 2.39887 -175.37
lowerback 8.21762 -4.04402 -1.83706
upperback 6.79217 -4.8479 0.0480916
thorax 2.61467 -2.22115 1.3578
lowerneck -2.59779 -3.08908 -5.5767
upperneck -6.04206 -3.08582 12.8469
head -1.02318 -1.4017 4.7731
rclavicle 4.9398e-014 -2.06736e-014
rhumerus -23.6937 34.5791 -95.471
rradius 121.571
rwrist 8.71914
rhand -23.1955 16.2162
rfingers 7.12502
rthumb 3.25428 -13.7388
lclavicle 4.9398e-014 -2.06736e-014
lhumerus -13.7128 -47.708 96.9375
lradius 118.966
lwrist 41.9104
lhand 0.546514 -17.2131
lfingers 7.12502
lthumb 26.1137 11.0114
rfemur -21.988 -4.40606 26.2986
rtibia 82.3051
rfoot -203.002 -187.836
rtoes 2.10451
lfemur 12.2175 0.397065 -15.9334
ltibia 37.4825
lfoot -26.958 -12.406
ltoes 1.58171
20
root -1.93471 16.5788 -7.8468 167.801 1.74586 -175.413
lowerback 8.52534 -4.12819 -2.00854
upperback 6.85567 -4.95079 -0.0126918
thorax 2.52759 -2.2676 1.41423
lowerneck -2.45065 -3.24465 -5.58224
upperneck -6.12979 -3.28004 12.9985
head -1.05092 -1.50386 4.82186
rclavicle -6.16232e-015 -4.77083e-015
rhumerus -22.5807 34.6986 -95.0907
rradius 121.795
rwrist 8.96731
rhand -23.5016 16.2829
rfingers 7.12502
rthumb 2.95864 -13.6763
lclavicle -6.16232e-015 -4.77083e-015
lhumerus -13.4129 -48.2803 96.9499
lradius 118.965
lwrist 41.8039
lhand 0.57006 -17.143
lfingers 7.12502
lthumb 26.1363 11.0782
rfemur -23.1399 -4.61949 26.2124
rtibia 82.2909
rfoot -203.118 -187.015
rtoes 2.39874
lfemur 12.8043 0.153074 -16.0008
ltibia 36.6983
lfoot -26.7352 -12.6859
ltoes 1.07681
